<svg id="Layer_2" data-name="Layer 2" xmlns="http://www.w3.org/2000/svg" viewBox="0 0 431.33 302.77"><defs><style>.cls-1{fill:none;}.cls-1,.cls-3{stroke:#231f20;stroke-miterlimit:10;stroke-width:3px;}.cls-2{font-size:60px;font-family:Copperplate-Bold, Copperplate;font-weight:700;}.cls-2,.cls-3{fill:#231f20;}.cls-4{font-size:41px;fill:#fff;font-family:Copperplate;}</style></defs><path class="cls-1" d="M255.44,262.6a26.61,26.61,0,0,0,7-4.72c3.9-3.69,5.38-5.18,5.38-5.18a4.61,4.61,0,0,1,2.35-1.41,5.3,5.3,0,0,1,2.55.18,7.23,7.23,0,0,1,1.88.85,8.94,8.94,0,0,1,1.8,1.6c1,1,1.34,1.53,2.07,2.36s1.26,1.36,2.45,2.55c1.65,1.65,1.68,1.57,3,2.92,1.09,1.1,1.88,2,3,3.2,1.83,2,1.51,1.75,2.45,2.74,2.65,2.77,3.05,2.55,3.87,4a8.88,8.88,0,0,0,1.51,2.07,7.19,7.19,0,0,0,1.32,1,4.46,4.46,0,0,0,1.51.66,9.49,9.49,0,0,0,1.6,0,5.72,5.72,0,0,1,2.07.66,9.54,9.54,0,0,1,2.17,1.22,15.14,15.14,0,0,1,1.7,1.7c1.54,1.63,1.33,1.38,1.79,1.89,1,1.06,1,1.22,2.54,3.11.68.82.42.48,2.08,2.45a21.64,21.64,0,0,0,2,2.26,8.13,8.13,0,0,0,2.64,1.79c.24.1.27.09,1.79.57a13.21,13.21,0,0,1,1.79.56,4.48,4.48,0,0,1,1.6,1.23,4.71,4.71,0,0,1,.85,1.69c.22.79.08,1,.38,1.42.12.15.28.29,1.32.66.82.29,1.07.33,1.79.56.35.12,1,.33,1.7.66s.77.44,1.79.95c.76.37.76.33,1.41.66a13.82,13.82,0,0,1,1.79,1,18.41,18.41,0,0,1,1.7,1.42l1.13,1c.84.78,1.26,1.17,1.51,1.42s.29.32,1.41,1.51a8.11,8.11,0,0,0,1.42,1.32,3.84,3.84,0,0,0,1.13.56,9.47,9.47,0,0,0,1.41.19c.49.08.57.13,1.23.28a14.07,14.07,0,0,0,2.26.38c1,.08,1,0,1.88.1a5.86,5.86,0,0,1,1.51.37,6.23,6.23,0,0,1,1.32.76,9.24,9.24,0,0,1,1.23,1c.46.45.77.81,1.22,1.32s.37.45.95,1.13c.41.5.76.91,1.22,1.42a11.43,11.43,0,0,0,1.32,1.32c.29.22.57.4,1.13.75.36.23.69.43,1.13.66a6.52,6.52,0,0,0,1,.47,6.19,6.19,0,0,0,1.41.29c.67,0,.64-.05,1.23,0s.71.2,1.7.37,1,.07,1.41.29.35.32.85.66a9.13,9.13,0,0,0,1.13.56,11.85,11.85,0,0,1,1.32.94c.81.63,1.38,1.12,1.51,1.23.33.29.64.55,1,.94s.49.52.94,1c.27.25.51.48.85.75a5.3,5.3,0,0,0,.94.66c.34.17.38.13,1,.38s.66.31,1.13.47a7.27,7.27,0,0,0,1.22.28c.72.13.78.08,1.51.19a11.9,11.9,0,0,1,1.79.38,7.34,7.34,0,0,1,1.32.47,10.58,10.58,0,0,1,1.42.85,15.8,15.8,0,0,1,1.41.94c.67.61.5.83,1.13,1.41a6.39,6.39,0,0,0,1.7,1c.53.26.59.25,1.22.57s.72.42,1.23.66c.8.36.84.22,1.51.56a10.6,10.6,0,0,1,1.22.76,4.08,4.08,0,0,1,1.42,1.32c.21.32.27.53.66,1.13s.41.53.66.94a14.68,14.68,0,0,1,.75,1.7l1,.84a10.66,10.66,0,0,0,.85.66c.57.39.66.31,1.22.66.15.1.51.39,1.22,1l.86.7a9.68,9.68,0,0,0,1,.86,1.58,1.58,0,0,0,.61.36c.38.07.55-.17,1.16-.26a6.2,6.2,0,0,1,.76,0,8,8,0,0,1,1.26.16,7.54,7.54,0,0,1,1,.25,16.2,16.2,0,0,1,1.57.71c.6.25.58.17,1.41.5.61.24.63.28,1.22.51.22.08.69.26,1.31.45a9.15,9.15,0,0,1,1.31.41c.49.23.41.31,1.06.65s.76.3,1,.56.12.27.36.86c.15.36.18.38.4.86.07.15.13.28.51,1.21a10.2,10.2,0,0,1,.5,1.31s-.19-.42-.25-.4a2.49,2.49,0,0,0,.41,1.52,3.47,3.47,0,0,0,1.16,1.11,7.63,7.63,0,0,0,1.46.71c.88.34,1.43.51,2.48.85l1.77.61c2.37.81,4.92,1.65,6.08,2,4.93,1.62,4.77,1.53,5,1.64,1.87,1,2.81,2,5.28,3.17a14.81,14.81,0,0,0,2.11.82,21.26,21.26,0,0,0,2.46.59s1,.21,3.52.88c3.21.85,4,1.64,7.63,2.87,1.37.47,1,.26,4.34,1.24,5.45,1.58,6.34,2.08,9.44,2.81,2.4.56,2.77.47,5.57,1a107.11,107.11,0,0,1,11,2.87c16.17,4.62,13.81,3.68,16.61,4.64s3.67,1.38,5.51,1.46a25.11,25.11,0,0,1,5.87.59,6.09,6.09,0,0,1,1.64.76A7.58,7.58,0,0,1,518.2,386a18.61,18.61,0,0,1,1.58,2.11,39.5,39.5,0,0,1,2.93,7c1,2.8,1,2.34,2.35,6.11a45.59,45.59,0,0,1,1.76,5.16c.28,1.84.09,2.88.94,3.58s1.8.29,2.75,1.29a4.06,4.06,0,0,1,.83,1.4,14.31,14.31,0,0,1,.52,2.35,6.35,6.35,0,0,0,.3,1.29c.15.42.28.56.41,1a5,5,0,0,1,.17,1.05c.08.85,0,1,.06,1.82a16.92,16.92,0,0,1,.18,2.11c0,.59-.14.78,0,1.12.21.52.63.48.84,1,.1.24,0,.28,0,1.35,0,.35,0,.7,0,1.05v3.87a26.73,26.73,0,0,1,0,3.82c-.1.71-.28,1.47-.37,1.87s-.16.65-.47,1.82-.48,1.83-.53,2.05c-.29,1.36-.15,1.41-.41,2.47a11.54,11.54,0,0,1-2,4.22,13.43,13.43,0,0,1-3.7,3.64,13.27,13.27,0,0,1-3.46,1.52,29.71,29.71,0,0,1-3,.65c-3.5.71-3.48.77-4.4.88-1.82.22-2.13,0-4.11.12a28.42,28.42,0,0,0-5,.76c-2.32.5-4.06.52-13,.88-11.23.45-16.84.68-17.19.82,0,0-5.58,2.26-7,.53a2.52,2.52,0,0,0-1.12-.82c-.19-.07-.83-.3-1.23,0s-.16.72-.53,1.17-.61.38-1.35.53a7.43,7.43,0,0,1-2.29.06,2,2,0,0,1-.93-.24,2.48,2.48,0,0,1-.71-.7c-.31-.42-.29-.59-.53-.71a.85.85,0,0,0-.76.06c-.2.13-.29.34-.47.77s-.16.61-.29.76-.23.23-1.41.29a11.93,11.93,0,0,1-1.35,0,2.65,2.65,0,0,1-1.29-.23c-.24-.18-.16-.26-.59-.65a3.24,3.24,0,0,0-.64-.53,1.15,1.15,0,0,0-1.29.18c-.26.33.08.68-.18,1.11a1.36,1.36,0,0,1-.94.53c-.46.12-.58,0-1.58-.06-1.17-.06-1.58-.06-1.58-.06-.48,0-.67,0-.83-.11s0-.64-.29-1.06-.75-.56-1-.41-.19.34-.23.65c-.06.47.05.61-.06.76s-.52.11-1.06.06a15,15,0,0,0-1.64,0h-1.93a1.56,1.56,0,0,1-1,0,1,1,0,0,1-.47-.47c-.1-.27,0-.38-.06-.59a.81.81,0,0,0-1-.35c-.27.15-.32.52-.35.7-.06.43.1.59,0,.77s-.62.22-1.23.17c-2.44-.18-2.45-.18-2.58-.17-1,.06-1.38.36-1.76.05a2.28,2.28,0,0,1-.53-.82c-.16-.39-.11-.58-.29-.7a.67.67,0,0,0-.88.18c-.12.23.15.43.06.7s-.7.41-1.12.47a8.52,8.52,0,0,1-1.46,0,13.48,13.48,0,0,0-1.47,0,3.18,3.18,0,0,1-1.41,0,.88.88,0,0,1-.53-.35c-.16-.32.11-.59-.06-.88a.92.92,0,0,0-.7-.35c-.17,0-.74-.16-.94.11s0,.31,0,.71a1.49,1.49,0,0,1-.12.88c-.22.32-.73.14-2.4.11h-1.64a1.1,1.1,0,0,1-.88-.41c-.23-.28,0-.49-.24-.82a1,1,0,0,0-.88-.41,1.12,1.12,0,0,0-.7.35c-.2.21-.17.35-.35.59a1.48,1.48,0,0,1-.65.47,3.3,3.3,0,0,1-1.58.17h-2.06c-.49.06-.68.14-.93,0s-.27-.37-.71-1c-.3-.43-.46-.65-.76-.76a.86.86,0,0,0-.82.05c-.23.22,0,.51-.24,1a1.41,1.41,0,0,1-.58.7c-.33.19-.56.1-1.41.06-.57,0-1,0-1.47,0-1.08,0-1.27.13-1.58-.06a9.35,9.35,0,0,1-.71-.64,1.08,1.08,0,0,0-.52-.76,2.2,2.2,0,0,0-.77-.12,2.37,2.37,0,0,1-.35,1.11,1.27,1.27,0,0,1-.47.53c-.36.21-.65,0-1.52-.12a7.5,7.5,0,0,0-1.88-.11,2.88,2.88,0,0,1-.88,0,1.31,1.31,0,0,1-.88-.47c-.26-.41.07-.76-.18-1.06a.94.94,0,0,0-1.23,0,2.26,2.26,0,0,0-.17.59,1,1,0,0,1-.18.88c-.28.29-.71.11-2.4,0a13.19,13.19,0,0,0-1.35-.06c-.8,0-.91.13-1.18,0-.45-.22-.35-.63-1-1.23a1.29,1.29,0,0,0-.83-.47,1,1,0,0,0-.93.59c-.15.34.07.54-.06.76s-.66.14-1.7.12a19.69,19.69,0,0,0-2.41,0,1.06,1.06,0,0,1-.76-.12c-.08-.06-.16-.15-.35-.71s-.23-.81-.41-1a1.2,1.2,0,0,0-.59-.3,1.51,1.51,0,0,0-1.7.83c-.07.29.11.42,0,.64s-.18.28-1.23.35c-.78.06-.79-.05-1.53,0-.48,0-.63.1-.88,0s-.35-.19-.7-.7c-.64-.92-.64-1.3-1-1.41a1,1,0,0,0-.82.24,1.44,1.44,0,0,0-.53.82c-.07.24,0,.31-.12.58a1.9,1.9,0,0,1-.29.59c-.38.46-1.12,0-2.58.18-.78.07-1.14.24-1.41,0-.07-.07-.12-.15-.29-.94s-.18-1-.35-1.12a1,1,0,0,0-.82-.17,1.27,1.27,0,0,0-.77.41c-.28.3-.19.5-.41.82a1.92,1.92,0,0,1-1.11.64,5,5,0,0,1-1.76.24,3.69,3.69,0,0,1-1.7-.24,2.15,2.15,0,0,1-.88-.64c-.34-.42-.22-.64-.53-1a1.34,1.34,0,0,0-1.23-.53c-.29.1-.45.42-.77,1.06s-.18.66-.35.82c-.39.39-.91,0-2.17.06-.9.06-1.42.34-1.93.06a1.89,1.89,0,0,1-.53-.41c-.17-.21-.18-.32-.35-.53a1.39,1.39,0,0,0-.53-.41c-.42-.16-1-.08-1.18.23s.22.61.06.82-.45.06-1.23,0h-2.64c-.56,0-.77,0-1-.11s-.17-.26-.46-.59a1.68,1.68,0,0,0-.88-.59,1.13,1.13,0,0,0-.88.18c-.43.35-.21.95-.59,1.17-.16.1-.31.05-.65,0-.65-.09-.51,0-2.05,0-1,0-.76-.06-1.29-.06-.79,0-1.08.11-1.35-.11a1.56,1.56,0,0,1-.41-.77c-.08-.3,0-.47-.18-.58s-.18-.06-.64,0-.67.07-1,.12a1.58,1.58,0,0,1-.59,1.05c-.36.25-.67.14-1.52.12-1.67,0-2.12.33-2.52-.06s-.21-.59-.71-1.06c-.29-.27-.46-.29-.52-.29-.35,0-.64.36-.77.65s0,.53-.17.7-.79.09-1.29,0c-1.82-.33-2.47.58-3.23,0-.37-.28-.33-.57-1.06-1.23a2.41,2.41,0,0,0-.58-.47,1.41,1.41,0,0,0-1.53.29c-.33.35-.07.64-.35,1-.41.52-1.36.46-2.17.41a11.89,11.89,0,0,0-1.47-.18c-.66,0-1,.21-1.23,0s0-.44-.06-.88c-.06-.26-.24-.72-.53-.76-.08,0-.21,0-.64.47-.22.23-.85.9-.76,1s.67-.28.64-.35-.56.17-1.46.29c-.6.08-.58,0-1.35.06-1.19.09-1.5.3-1.82.06s-.14-.5-.53-.82a5.82,5.82,0,0,0-1-.42c-.37-.13-.48-.17-.58-.11s-.08.34-.24.64a1.42,1.42,0,0,1-.94.59,3.62,3.62,0,0,1-1,0c-.46,0-.78,0-1.53-.06-.48,0-.65,0-.82-.18s-.17-.28-.41-.64a1.91,1.91,0,0,0-.82-.76,1.25,1.25,0,0,0-.88-.06c-.44.15-.51.52-.82.88s-1,.56-2.17.76-1.92.32-2.41-.12a6.46,6.46,0,0,0-.64-.7,2.39,2.39,0,0,0-.82-.47c-.36-.1-1-.19-1.24.12s.1.49-.06.76-.47.26-.76.29a11.89,11.89,0,0,1-2.87.24,2.24,2.24,0,0,1-1.06-.3c-.44-.3-.39-.61-.94-1.05a1.27,1.27,0,0,0-1-.41,1,1,0,0,0-.59.35c-.21.26-.13.45-.29.7s-.31.34-.83.47a4.6,4.6,0,0,1-3.22,0c-.91-.39-.93-.85-2-1.17a1.94,1.94,0,0,0-1.29-.06,1.87,1.87,0,0,0-1,1.12s.41-.38.35-.47-.79.41-1.94.58a4.75,4.75,0,0,1-1.41,0c-.73-.07-.9-.2-1-.29-.25-.25-.14-.46-.41-.7a1,1,0,0,0-.82-.24c-.15,0-.24.1-.53.35a6.18,6.18,0,0,1-1.06.88,2.08,2.08,0,0,1-.82.18,5.94,5.94,0,0,1-2.23-.12,4.41,4.41,0,0,1-1.7-.7,1.4,1.4,0,0,0-.82-.41,1.21,1.21,0,0,0-.76.29c-.33.27-.24.48-.47.7s-.54.19-1.88.18h-1.29c-.76.07-1.1.21-1.53,0a2.36,2.36,0,0,1-.52-.41c-.43-.38-.49-.58-.77-.65a1.2,1.2,0,0,0-.58.06,2.43,2.43,0,0,0-.65.3l-1,.58a3.56,3.56,0,0,1-1.17.3,6.79,6.79,0,0,1-2.17-.06,2.24,2.24,0,0,1-1.11-.35c-.35-.29-.31-.54-.71-.83-.06,0-.62-.43-1-.23s-.16.37-.41.65c-.1.11-.31.29-1.23.41s-.84,0-1.64.05-1.06.24-1.47.06c-.22-.1-.17-.16-.64-.52a2.83,2.83,0,0,0-1.29-.71,1,1,0,0,0-.82.12c-.23.17-.17.35-.36.59s-.32.36-1.29.46a10.15,10.15,0,0,1-1.46,0c-1.34,0-1.76.34-2.17,0-.23-.18-.2-.36-.59-.7a2.44,2.44,0,0,0-.65-.41,1.6,1.6,0,0,0-1.23-.18c-.15.07-.14.12-.47.41a2.89,2.89,0,0,1-.88.65c-.33.13-.43,0-1.35.06l-.76.06a5.55,5.55,0,0,1-2,0c-.46-.3-.23-.73-.76-1.12a1.41,1.41,0,0,0-1.41-.17c-.4.21-.27.53-.65.82s-.76.11-2.17.12a8.91,8.91,0,0,1-1.58,0,4.28,4.28,0,0,1-1.29-.47c-.47-.28-.44-.49-.82-.65a1.22,1.22,0,0,0-1.29.12c-.22.26,0,.52-.18.76s-.72.09-1.88.06a9.39,9.39,0,0,0-1.76.06c-.55.07-.81.16-1.11,0s-.31-.47-.65-.76a1.52,1.52,0,0,0-1.17-.42c-.36.07-.41.3-.88.53A3.11,3.11,0,0,1,208,455a10.68,10.68,0,0,1-2.59.06,2.56,2.56,0,0,1-1.17-.3c-.39-.25-.4-.5-.88-.82-.17-.11-.74-.49-1.05-.29-.11.07-.11.15-.36.76s-.24.54-.29.59a1.17,1.17,0,0,1-.88.23,16.53,16.53,0,0,1-3.17-.17,1.92,1.92,0,0,1-1.05-.41c-.3-.3-.23-.54-.53-.77a1.07,1.07,0,0,0-1.35,0c-.14.21.07.42-.06.65s-.27.3-1.29.29-1.2-.21-2.11-.17a4.18,4.18,0,0,1-1.12,0,1.65,1.65,0,0,1-1-.53c-.26-.35-.12-.6-.41-.88a.79.79,0,0,0-.65-.24c-.47.12-.65,1.06-.64,1.06s.22-.5.17-.53-.26.54-.76.82c-.15.08-.4.18-2,0-.75-.08-.62-.1-.93-.12-1.17-.06-1.5.23-1.88-.05s-.63-2.48-1.12-1.41-.48,1.07-1,1.17a1.1,1.1,0,0,1-.65-.12,7.83,7.83,0,0,0-3.34-.11c-.64.05-1,.11-1.23-.12a3.59,3.59,0,0,1-.47-.88c-.21-.45-.26-.6-.41-.65s-.56.21-.59.24c-.27.27-.19.52-.35.7s-.84,0-1.59-.11c-.91-.16-1.05.09-3.34,0-.38,0-.79,0-1-.29s0-.71-.23-1a1,1,0,0,0-1.29.06c-.13.23.14.43.06.65-.19.47-1.63,0-3.82.06-1.17,0-2.09.17-2.28-.24s.25-.68,0-.94a.77.77,0,0,0-1,.06c-.16.22,0,.45-.12.65s-1,.12-1.29.06a25.85,25.85,0,0,0-3.52-.3c-1.61-.13-1.38,0-2.7-.12-1.11-.12-1.24-.23-2.93-.46-1.24-.18-1.33-.14-2.35-.3-1.2-.18-1.65-.32-2.7-.53a38.57,38.57,0,0,0-4.34-.58c-.91-.07-.88,0-4,0-2.65,0-4,0-4.93-.06-1.84-.15-2-.33-4.17-.53s-2.82-.11-3.75-.17c-3.15-.22-5.53-2-10.27-5.46-2.7-2-3.42-2.88-3.93-3.75a13.37,13.37,0,0,1-1.41-4.64,29.68,29.68,0,0,1-.41-6.22c0-1.19.09-1,.18-2.93.15-3.06,0-4,.12-5.92s.2-1.47.7-5.81c.27-2.38.53-4.57.71-7.45a40.45,40.45,0,0,1,.29-4.17c.32-2.12.66-2.58.94-4.75.17-1.38.1-1.71.23-3.93.15-2.51.35-4,.47-5.28.26-2.57.14-3.57.12-10.15,0-9.15.19-11.72.29-12.78.31-3.26.67-3.43.88-6.4s0-3.75,0-9a69.86,69.86,0,0,1,.29-7.75,61.45,61.45,0,0,1,1.06-6.39c.28-1.26.36-1.39.88-3.64.18-.78.29-1.26,1.06-4.81.89-4.13.89-4.12.94-4.28.61-2.1,1-2.72,1-4.22,0-1-.2-.92-.29-2.53a12.35,12.35,0,0,1,.23-3.75,11.89,11.89,0,0,1,.88-2.46c.63-1.36,1-1.57,1.53-2.7a13.21,13.21,0,0,0,.88-2.94c.32-1.43.47-2.43.82-5,.56-4,.55-4.05.64-4.46.28-1.19.3-.86,1.53-4.69.71-2.23.88-2.89,1.47-4.46.16-.46.49-1.3.88-2.29.78-2,.79-1.86,1.05-2.64a7.81,7.81,0,0,1,.76-2.05,3.21,3.21,0,0,1,1.41-1.29,3.52,3.52,0,0,1,1.82-.12,5.81,5.81,0,0,1,2.46.65,5.74,5.74,0,0,1,1.53,1.23,11.75,11.75,0,0,1,1.29,1.76c.5.74.83,1.25,1.23,1.88.87,1.34,1.32,2,1.59,2.4.52.74.65.85,1.64,2.11,1.1,1.41,1.76,2.25,2.52,3.35,1.14,1.64,1.14,1.89,2,2.93a18.48,18.48,0,0,0,1.94,2c3,2.81,4.56,4.22,5.1,4.64a49.53,49.53,0,0,0,5,3.05c4.52,2.65,4.41,2.79,8,4.87s5.85,3.17,6.45,3.46c1.18.57,2.77,1.35,4.93,2.23a57.27,57.27,0,0,0,6.33,2.23,48.58,48.58,0,0,0,8.92,1.52c4.89.4,13.13,1.06,21.65-2.59.91-.4,3.25-1.71,7.93-4.33a102.22,102.22,0,0,0,9.23-5.63c3.55-2.47,5.52-4.26,7.07-6.78a9.47,9.47,0,0,0,1.44-3.17c.49-2.24-.31-3.23-1.15-7.94-.66-3.71-.52-5.05-.43-5.62a21,21,0,0,1,1.15-3.9,24.93,24.93,0,0,1,2.31-5.48c1-1.44,2.08-2.3,4.33-4a36.4,36.4,0,0,1,6.78-4.18C253.25,263.25,253.2,263.67,255.44,262.6Z" transform="translate(-104.05 -249.7)"/><text class="cls-2" transform="translate(1.5 285.5)">SHOES</text><g id="swipe"><rect class="cls-3" x="227.77" y="245.05" width="78.45" height="46.05" rx="23.02"/><text class="cls-4" transform="translate(241.22 278.09)">on</text><rect class="cls-1" x="227.77" y="245.05" width="139.33" height="46.05" rx="23.02"/></g></svg>