<svg id="Layer_2" data-name="Layer 2" xmlns="http://www.w3.org/2000/svg" viewBox="0 0 431.33 342.11"><defs><style>.cls-1{fill:none;stroke:#231f20;stroke-miterlimit:10;stroke-width:3px;}.cls-2,.cls-4,.cls-5{fill:#231f20;}.cls-3{font-size:41px;fill:#fff;font-family:Copperplate;}.cls-4{font-size:60px;font-family:Copperplate-Bold, Copperplate;font-weight:700;}.cls-5{font-size:32px;font-family:Copperplate-Light, Copperplate;font-weight:300;}</style></defs><path class="cls-1" d="M255.44,224.34a26.76,26.76,0,0,0,7-4.71c3.9-3.7,5.38-5.19,5.38-5.19a4.61,4.61,0,0,1,2.35-1.41,5.4,5.4,0,0,1,2.55.19,6.57,6.57,0,0,1,1.88.85,8.62,8.62,0,0,1,1.8,1.6c1,1,1.34,1.53,2.07,2.36s1.26,1.35,2.45,2.54c1.65,1.65,1.68,1.58,3,2.92,1.09,1.1,1.88,2,3,3.21,1.83,2,1.51,1.75,2.45,2.73,2.65,2.77,3.05,2.55,3.87,4a8.88,8.88,0,0,0,1.51,2.07,6.42,6.42,0,0,0,1.32,1,4.27,4.27,0,0,0,1.51.66,9.49,9.49,0,0,0,1.6,0,5.92,5.92,0,0,1,2.07.66,9.26,9.26,0,0,1,2.17,1.23,14.63,14.63,0,0,1,1.7,1.69c1.54,1.64,1.33,1.38,1.79,1.89,1,1.07,1,1.22,2.54,3.11.68.82.42.49,2.08,2.45a20.42,20.42,0,0,0,2,2.26,8,8,0,0,0,2.64,1.79c.24.1.27.1,1.79.57a14.26,14.26,0,0,1,1.79.57,4.42,4.42,0,0,1,1.6,1.22,4.65,4.65,0,0,1,.85,1.7c.22.78.08,1,.38,1.41.12.15.28.3,1.32.66.82.29,1.07.33,1.79.57a15.9,15.9,0,0,1,1.7.66c.75.35.77.44,1.79.94.76.38.76.33,1.41.66a14,14,0,0,1,1.79,1,19.67,19.67,0,0,1,1.7,1.41l1.13,1,1.51,1.41c.38.38.29.32,1.41,1.51a7.36,7.36,0,0,0,1.42,1.32,3.84,3.84,0,0,0,1.13.57,11.29,11.29,0,0,0,1.41.18c.49.08.57.14,1.23.29a15.62,15.62,0,0,0,2.26.37c1,.09,1,0,1.88.1a5.93,5.93,0,0,1,1.51.38,6.25,6.25,0,0,1,1.32.75,9.24,9.24,0,0,1,1.23,1,17.47,17.47,0,0,1,1.22,1.32c.38.43.37.44.95,1.13.41.49.76.9,1.22,1.41a11.43,11.43,0,0,0,1.32,1.32c.29.23.57.4,1.13.76.36.22.69.42,1.13.66a9,9,0,0,0,1,.47,6.43,6.43,0,0,0,1.41.28c.67.06.64,0,1.23,0s.71.2,1.7.38,1,.07,1.41.28.35.33.85.66a10.86,10.86,0,0,0,1.13.57,10.59,10.59,0,0,1,1.32.94c.81.62,1.38,1.11,1.51,1.22.33.29.64.56,1,.95s.49.51.94.94a11,11,0,0,0,.85.75,5.3,5.3,0,0,0,.94.66,8.83,8.83,0,0,0,1,.38c.66.25.66.32,1.13.47a7.27,7.27,0,0,0,1.22.28c.72.13.78.09,1.51.19a13.33,13.33,0,0,1,1.79.38,8.2,8.2,0,0,1,1.32.47,12.09,12.09,0,0,1,1.42.85c.85.54,1.27.82,1.41.94.67.62.5.83,1.13,1.42a6.67,6.67,0,0,0,1.7,1c.53.27.59.25,1.22.57s.72.43,1.23.66c.8.36.84.22,1.51.56a12.42,12.42,0,0,1,1.22.76,4.18,4.18,0,0,1,1.42,1.32c.21.32.27.53.66,1.13s.41.53.66.94a14.68,14.68,0,0,1,.75,1.7l1,.85c.59.47.7.56.85.66.57.38.66.3,1.22.66.15.09.51.38,1.22,1,.52.42.78.63.86.71a11.13,11.13,0,0,0,1,.86,1.66,1.66,0,0,0,.61.35c.38.07.55-.17,1.16-.25a3.73,3.73,0,0,1,.76,0,9,9,0,0,1,1.26.15,7.54,7.54,0,0,1,1,.25c.69.23.74.37,1.57.71.6.25.58.18,1.41.5.61.24.63.28,1.22.51.22.09.69.26,1.31.46a9.68,9.68,0,0,1,1.31.4c.49.23.41.31,1.06.66s.76.29,1,.55.12.27.36.86c.15.36.18.39.4.86.07.15.13.28.51,1.21a10.56,10.56,0,0,1,.5,1.32s-.19-.42-.25-.41a2.46,2.46,0,0,0,.41,1.52,3.47,3.47,0,0,0,1.16,1.11,7,7,0,0,0,1.46.71c.88.35,1.43.51,2.48.86l1.77.6c2.37.81,4.92,1.65,6.08,2,4.93,1.63,4.77,1.53,5,1.65,1.87,1,2.81,2,5.28,3.16a16.45,16.45,0,0,0,2.11.83,21.14,21.14,0,0,0,2.46.58s1,.21,3.52.88c3.21.86,4,1.64,7.63,2.88,1.37.46,1,.25,4.34,1.23,5.45,1.58,6.34,2.09,9.44,2.81,2.4.57,2.77.48,5.57,1a110.86,110.86,0,0,1,11,2.88c16.17,4.62,13.81,3.68,16.61,4.63s3.67,1.39,5.51,1.47a24.5,24.5,0,0,1,5.87.58,5.87,5.87,0,0,1,1.64.77,7.23,7.23,0,0,1,1.41,1.35,16.92,16.92,0,0,1,1.58,2.11,38.88,38.88,0,0,1,2.93,7c1,2.8,1,2.34,2.35,6.1a45.59,45.59,0,0,1,1.76,5.16c.28,1.84.09,2.88.94,3.58s1.8.3,2.75,1.29a4.09,4.09,0,0,1,.83,1.41,14.11,14.11,0,0,1,.52,2.34,6.19,6.19,0,0,0,.3,1.29c.15.42.28.56.41,1a5.19,5.19,0,0,1,.17,1.06c.08.84,0,1,.06,1.82A16.63,16.63,0,0,1,533,384c0,.59-.14.78,0,1.11.21.53.63.48.84,1,.1.24,0,.28,0,1.35,0,.35,0,.7,0,1.05v3.88a26.57,26.57,0,0,1,0,3.81c-.1.71-.28,1.48-.37,1.88s-.16.64-.47,1.82-.48,1.82-.53,2.05c-.29,1.35-.15,1.4-.41,2.46a12.63,12.63,0,0,1-.76,2.17,13,13,0,0,1-8.39,7.22c-.63.19-.79.2-3,.64-3.5.71-3.48.77-4.4.88-1.82.22-2.13,0-4.11.12a28.42,28.42,0,0,0-5,.76c-2.32.5-4.06.52-13,.88-11.23.46-16.84.69-17.19.82,0,0-5.58,2.26-7,.53a2.69,2.69,0,0,0-1.12-.82c-.19-.07-.83-.3-1.23,0s-.16.73-.53,1.17-.61.38-1.35.53a6.85,6.85,0,0,1-2.29.06,2,2,0,0,1-.93-.23,2.5,2.5,0,0,1-.71-.71c-.31-.42-.29-.59-.53-.7a.82.82,0,0,0-.76.06c-.2.12-.29.33-.47.76s-.16.61-.29.76-.23.23-1.41.3c-.33,0-.77,0-1.35,0a2.51,2.51,0,0,1-1.29-.24c-.24-.17-.16-.26-.59-.64a2.9,2.9,0,0,0-.64-.53,1.15,1.15,0,0,0-1.29.17c-.26.33.08.69-.18,1.12a1.44,1.44,0,0,1-.94.53c-.46.11-.58,0-1.58-.06-1.17-.07-1.58-.06-1.58-.06-.48,0-.67,0-.83-.12s0-.64-.29-1.05-.75-.57-1-.42-.19.34-.23.65c-.06.47.05.62-.06.76s-.52.11-1.06.06-1.09,0-1.64,0h-1.93a1.56,1.56,0,0,1-1,0,.9.9,0,0,1-.47-.47c-.1-.26,0-.38-.06-.58a.8.8,0,0,0-1-.36c-.27.15-.32.52-.35.71-.06.42.1.58,0,.76s-.62.22-1.23.18c-2.44-.19-2.45-.19-2.58-.18-1,.07-1.38.36-1.76.06a2.46,2.46,0,0,1-.53-.82c-.16-.4-.11-.58-.29-.71a.68.68,0,0,0-.88.18c-.12.23.15.44.06.7s-.7.41-1.12.47a8.52,8.52,0,0,1-1.46,0c-.79,0-1.18,0-1.47,0a3,3,0,0,1-1.41,0,.84.84,0,0,1-.53-.35c-.16-.31.11-.58-.06-.88a1,1,0,0,0-.7-.35c-.17,0-.74-.15-.94.12s0,.31,0,.7a1.49,1.49,0,0,1-.12.88c-.22.32-.73.15-2.4.12h-1.64a1.17,1.17,0,0,1-.88-.41c-.23-.28,0-.5-.24-.82a1,1,0,0,0-.88-.42,1.12,1.12,0,0,0-.7.36c-.2.21-.17.34-.35.58a1.48,1.48,0,0,1-.65.47,3.4,3.4,0,0,1-1.58.18h-2.06c-.49.06-.68.13-.93,0s-.27-.38-.71-1c-.3-.42-.46-.65-.76-.76a.83.83,0,0,0-.82.06c-.23.21,0,.5-.24,1a1.46,1.46,0,0,1-.58.71c-.33.19-.56.1-1.41.06a14.36,14.36,0,0,0-1.47,0c-1.08,0-1.27.13-1.58-.06a9.15,9.15,0,0,1-.71-.65,1.08,1.08,0,0,0-.52-.76,2.2,2.2,0,0,0-.77-.12,2.37,2.37,0,0,1-.35,1.12,1.4,1.4,0,0,1-.47.53c-.36.2-.65,0-1.52-.12a7.47,7.47,0,0,0-1.88-.12,2.6,2.6,0,0,1-.88,0,1.31,1.31,0,0,1-.88-.47c-.26-.4.07-.76-.18-1a.92.92,0,0,0-1.23,0,2.22,2.22,0,0,0-.17.58,1,1,0,0,1-.18.88c-.28.3-.71.12-2.4,0-.68,0-1-.07-1.35-.06-.8,0-.91.13-1.18,0-.45-.21-.35-.62-1-1.23a1.29,1.29,0,0,0-.83-.47,1,1,0,0,0-.93.59c-.15.34.07.55-.06.76s-.66.14-1.7.12a22.15,22.15,0,0,0-2.41,0,1,1,0,0,1-.76-.12c-.08-.06-.16-.15-.35-.7s-.23-.81-.41-1a1.09,1.09,0,0,0-.59-.29,1.51,1.51,0,0,0-1.7.82c-.07.29.11.43,0,.64s-.18.28-1.23.36c-.78.05-.79-.06-1.53,0-.48,0-.63.09-.88,0s-.35-.2-.7-.71c-.64-.92-.64-1.3-1-1.41a1,1,0,0,0-.82.24,1.51,1.51,0,0,0-.53.82c-.07.24,0,.31-.12.59a1.83,1.83,0,0,1-.29.58c-.38.47-1.12,0-2.58.18-.78.07-1.14.25-1.41,0-.07-.06-.12-.14-.29-.94s-.18-1-.35-1.11a1,1,0,0,0-.82-.18,1.32,1.32,0,0,0-.77.41c-.28.31-.19.51-.41.82a1.93,1.93,0,0,1-1.11.65,5.23,5.23,0,0,1-1.76.23,3.57,3.57,0,0,1-1.7-.23,2.29,2.29,0,0,1-.88-.65c-.34-.42-.22-.63-.53-1a1.34,1.34,0,0,0-1.23-.52c-.29.09-.45.41-.77,1.05s-.18.66-.35.82c-.39.4-.91,0-2.17.06-.9.07-1.42.34-1.93.06a1.89,1.89,0,0,1-.53-.41c-.17-.2-.18-.32-.35-.53a1.62,1.62,0,0,0-.53-.41c-.42-.16-1-.07-1.18.24s.22.61.06.82-.45.05-1.23,0h-2.64c-.56,0-.77,0-1-.12s-.17-.26-.46-.59a1.61,1.61,0,0,0-.88-.58,1.11,1.11,0,0,0-.88.17c-.43.36-.21,1-.59,1.18-.16.09-.31,0-.65,0-.65-.09-.51,0-2.05,0-1,0-.76-.07-1.29-.06-.79,0-1.08.1-1.35-.12a1.54,1.54,0,0,1-.41-.76c-.08-.31,0-.48-.18-.59s-.18-.06-.64,0l-1,.12a1.56,1.56,0,0,1-.59,1c-.36.25-.67.14-1.52.12-1.67,0-2.12.34-2.52-.06s-.21-.59-.71-1c-.29-.28-.46-.3-.52-.3-.35,0-.64.36-.77.65s0,.53-.17.7-.79.09-1.29,0c-1.82-.33-2.47.58-3.23,0-.37-.27-.33-.57-1.06-1.23a2.71,2.71,0,0,0-.58-.47,1.44,1.44,0,0,0-1.53.3c-.33.35-.07.63-.35,1-.41.53-1.36.47-2.17.41a11.66,11.66,0,0,0-1.47-.17c-.66,0-1,.21-1.23,0s0-.45-.06-.88c-.06-.27-.24-.73-.53-.77-.08,0-.21,0-.64.47-.22.23-.85.9-.76,1s.67-.28.64-.35-.56.18-1.46.29c-.6.08-.58,0-1.35.06-1.19.09-1.5.3-1.82.06s-.14-.5-.53-.82a6.28,6.28,0,0,0-1-.41c-.37-.14-.48-.18-.58-.12s-.08.35-.24.65a1.4,1.4,0,0,1-.94.58,3.27,3.27,0,0,1-1,0c-.46,0-.78,0-1.53-.06-.48,0-.65,0-.82-.17s-.17-.29-.41-.65a2,2,0,0,0-.82-.76,1.31,1.31,0,0,0-.88-.06c-.44.15-.51.53-.82.88s-1,.57-2.17.76-1.92.33-2.41-.11a6.35,6.35,0,0,0-.64-.71,2.39,2.39,0,0,0-.82-.47c-.36-.1-1-.19-1.24.12s.1.5-.06.76-.47.27-.76.3c-2,.2-2.06.35-2.87.23a2.25,2.25,0,0,1-1.06-.29c-.44-.3-.39-.62-.94-1.06a1.31,1.31,0,0,0-1-.41,1.1,1.1,0,0,0-.59.35c-.21.26-.13.46-.29.71a1.28,1.28,0,0,1-.83.47,4.71,4.71,0,0,1-3.22,0c-.91-.4-.93-.86-2-1.18a1.61,1.61,0,0,0-2.28,1.06s.41-.37.35-.47-.79.41-1.94.59a5.54,5.54,0,0,1-1.41,0c-.73-.07-.9-.21-1-.3-.25-.24-.14-.45-.41-.7a1,1,0,0,0-.82-.24c-.15,0-.24.1-.53.36a6.77,6.77,0,0,1-1.06.88,2.3,2.3,0,0,1-.82.17,6.11,6.11,0,0,1-2.23-.11,4.43,4.43,0,0,1-1.7-.71,1.4,1.4,0,0,0-.82-.41,1.21,1.21,0,0,0-.76.29c-.33.28-.24.48-.47.71s-.54.19-1.88.17h-1.29c-.76.07-1.1.22-1.53,0a2.36,2.36,0,0,1-.52-.41c-.43-.38-.49-.57-.77-.64a1.09,1.09,0,0,0-.58.06,2.42,2.42,0,0,0-.65.29l-1,.59a3.57,3.57,0,0,1-1.17.29,6.51,6.51,0,0,1-2.17-.06,2.24,2.24,0,0,1-1.11-.35c-.35-.28-.31-.54-.71-.82-.06,0-.62-.44-1-.24s-.16.37-.41.65c-.1.12-.31.3-1.23.41s-.84,0-1.64.06-1.06.23-1.47.06c-.22-.1-.17-.16-.64-.53a2.83,2.83,0,0,0-1.29-.71,1.14,1.14,0,0,0-.82.12c-.23.17-.17.35-.36.59s-.32.36-1.29.47a14.2,14.2,0,0,1-1.46,0c-1.34,0-1.76.34-2.17,0-.23-.19-.2-.37-.59-.71a2.72,2.72,0,0,0-.65-.41,1.56,1.56,0,0,0-1.23-.17c-.15.07-.14.12-.47.41a2.82,2.82,0,0,1-.88.64c-.33.13-.43,0-1.35.06l-.76.06a5.32,5.32,0,0,1-2,0c-.46-.29-.23-.73-.76-1.11a1.39,1.39,0,0,0-1.41-.18c-.4.21-.27.53-.65.82s-.76.11-2.17.12a8,8,0,0,1-1.58,0,4,4,0,0,1-1.29-.47c-.47-.28-.44-.49-.82-.65a1.22,1.22,0,0,0-1.29.12c-.22.26,0,.52-.18.76s-.72.09-1.88.06a11.47,11.47,0,0,0-1.76.06c-.55.07-.81.17-1.11,0s-.31-.46-.65-.76a1.56,1.56,0,0,0-1.17-.41c-.36.06-.41.3-.88.53a3.2,3.2,0,0,1-1.11.23,10.68,10.68,0,0,1-2.59.06,2.71,2.71,0,0,1-1.17-.29c-.39-.26-.4-.51-.88-.83-.17-.11-.74-.48-1.05-.29-.11.07-.11.15-.36.76s-.24.55-.29.59a1.18,1.18,0,0,1-.88.24,17.14,17.14,0,0,1-3.17-.18,1.78,1.78,0,0,1-1.05-.41c-.3-.3-.23-.53-.53-.76a1.07,1.07,0,0,0-1.35,0c-.14.21.07.41-.06.64s-.27.3-1.29.29-1.2-.21-2.11-.17a3.8,3.8,0,0,1-1.12,0,1.6,1.6,0,0,1-1-.53c-.26-.34-.12-.6-.41-.88a.83.83,0,0,0-.65-.23c-.47.12-.65,1.05-.64,1.05s.22-.5.17-.53-.26.55-.76.83c-.15.08-.4.18-2,0-.75-.09-.62-.1-.93-.12-1.17-.07-1.5.22-1.88-.06s-.63-2.48-1.12-1.41-.48,1.07-1,1.17a1.1,1.1,0,0,1-.65-.11,7.8,7.8,0,0,0-3.34-.12c-.64,0-1,.12-1.23-.12a3.38,3.38,0,0,1-.47-.88c-.21-.44-.26-.59-.41-.64s-.56.2-.59.23c-.27.27-.19.53-.35.71s-.84,0-1.59-.12a32,32,0,0,0-3.34.06c-.38,0-.79,0-1-.3s0-.71-.23-1a1,1,0,0,0-1.29.06c-.13.23.14.42.06.64-.19.47-1.63,0-3.82.06-1.17,0-2.09.17-2.28-.23s.25-.68,0-.94a.76.76,0,0,0-1,.06c-.16.21,0,.45-.12.64s-1,.13-1.29.06a24.34,24.34,0,0,0-3.52-.29c-1.61-.14-1.38,0-2.7-.12-1.11-.12-1.24-.23-2.93-.47-1.24-.18-1.33-.14-2.35-.29-1.2-.19-1.65-.33-2.7-.53a37.62,37.62,0,0,0-4.34-.59c-.91-.06-.88,0-4,0-2.65,0-4,0-4.93-.06-1.84-.15-2-.33-4.17-.53s-2.82-.11-3.75-.17c-3.15-.22-5.53-2-10.27-5.46-2.7-2-3.42-2.87-3.93-3.75a13.3,13.3,0,0,1-1.41-4.64,29.63,29.63,0,0,1-.41-6.21c0-1.2.09-1,.18-2.94.15-3.05,0-4,.12-5.92s.2-1.47.7-5.81c.27-2.37.53-4.57.71-7.45a40.19,40.19,0,0,1,.29-4.16c.32-2.12.66-2.59.94-4.76.17-1.37.1-1.71.23-3.93.15-2.51.35-4,.47-5.27.26-2.58.14-3.58.12-10.15,0-9.16.19-11.72.29-12.79.31-3.25.67-3.43.88-6.4s0-3.75,0-9a69.77,69.77,0,0,1,.29-7.74,61.33,61.33,0,0,1,1.06-6.4c.28-1.26.36-1.39.88-3.63.18-.79.29-1.27,1.06-4.81.89-4.13.89-4.13.94-4.29.61-2.1,1-2.72,1-4.22,0-1-.2-.91-.29-2.52a12.41,12.41,0,0,1,.23-3.76,12.12,12.12,0,0,1,.88-2.46c.63-1.35,1-1.57,1.53-2.7a13.27,13.27,0,0,0,.88-2.93c.32-1.44.47-2.44.82-5,.56-4,.55-4.05.64-4.46.28-1.19.3-.85,1.53-4.69.71-2.23.88-2.89,1.47-4.46.16-.45.49-1.3.88-2.28.78-2,.79-1.86,1.05-2.64a7.91,7.91,0,0,1,.76-2.06,3.27,3.27,0,0,1,1.41-1.29,3.52,3.52,0,0,1,1.82-.12,5.42,5.42,0,0,1,4,1.88,11.75,11.75,0,0,1,1.29,1.76c.5.74.83,1.25,1.23,1.88.87,1.34,1.32,2,1.59,2.4.52.74.65.85,1.64,2.12s1.76,2.25,2.52,3.34c1.14,1.64,1.14,1.9,2,2.93a18.63,18.63,0,0,0,1.94,2c3,2.81,4.56,4.21,5.1,4.63a47.59,47.59,0,0,0,5,3c4.52,2.66,4.41,2.79,8,4.87s5.85,3.17,6.45,3.46c1.18.58,2.77,1.35,4.93,2.23a55.25,55.25,0,0,0,6.33,2.23,47.67,47.67,0,0,0,8.92,1.52c4.89.4,13.13,1.07,21.65-2.59.91-.39,3.25-1.7,7.93-4.33a102.59,102.59,0,0,0,9.23-5.62c3.55-2.48,5.52-4.27,7.07-6.78a9.43,9.43,0,0,0,1.44-3.18c.49-2.24-.31-3.22-1.15-7.93-.66-3.72-.52-5.06-.43-5.63a20.74,20.74,0,0,1,1.15-3.89,25.07,25.07,0,0,1,2.31-5.49c1-1.43,2.08-2.3,4.33-4a36.7,36.7,0,0,1,6.78-4.19C253.25,225,253.2,225.41,255.44,224.34Z" transform="translate(-104.05 -211.44)"/><g id="swipe"><rect class="cls-2" x="227.77" y="245.05" width="78.45" height="46.05" rx="23.02"/><text class="cls-3" transform="translate(241.22 278.09)">on</text><rect class="cls-1" x="227.77" y="245.05" width="139.33" height="46.05" rx="23.02"/><text class="cls-4" transform="translate(1.5 285.5)">SHOES</text></g><text class="cls-5" transform="translate(1.5 333.37)">discomfort gone</text></svg>